<!-- Generated by IcoMoon.io -->
<svg version="1.1" xmlns="http://www.w3.org/2000/svg" width="1365" height="1024" viewBox="0 0 1365 1024">
<title>twit1</title>
<g id="icomoon-ignore">
</g>
<path fill="#757575" d="M1237.468 0.093h-1109.454c-70.578 0-128.014 57.436-128.014 128.014v768.083c0 70.578 57.436 128.014 128.014 128.014h1109.454c70.578 0 128.014-57.436 128.014-128.014v-768.083c0-70.578-57.436-128.014-128.014-128.014zM1237.468 85.435c5.803 0 11.351 1.195 16.386 3.328l-571.113 494.987-571.113-494.987c4.836-2.091 10.466-3.314 16.38-3.328h1109.46zM1237.468 938.861h-1109.454c-23.567 0-42.671-19.105-42.671-42.671v0-717.304l569.406 493.536c7.449 6.501 17.258 10.465 27.992 10.465s20.544-3.964 28.043-10.508l-0.051 0.043 569.406-493.536v717.304c0 23.567-19.105 42.671-42.671 42.671v0z"></path>
</svg>
