<!-- Generated by IcoMoon.io -->
<svg version="1.1" xmlns="http://www.w3.org/2000/svg" width="400" height="640" viewBox="0 0 400 640">
<title>twit1</title>
<g id="icomoon-ignore">
</g>
<path fill="#757575" d="M340.015 0h-280.031c-33.084 0-60.006 26.923-60.006 60.006v520.056c0 33.084 26.923 60.006 60.006 60.006h280.031c33.084 0 60.006-26.923 60.006-60.006v-520.056c0-33.084-26.923-60.006-60.006-60.006zM59.985 40.004h280.031c11.047 0 20.002 8.955 20.002 20.002v0 420.046h-320.035v-420.046c0-11.047 8.955-20.002 20.002-20.002v0zM340.015 600.065h-280.031c-11.047 0-20.002-8.955-20.002-20.002v0-60.006h320.035v60.006c0 11.047-8.955 20.002-20.002 20.002v0z"></path>
<path fill="#757575" d="M94.149 549.619c3.605 3.27 5.859 7.972 5.859 13.201s-2.254 9.931-5.844 13.188l-0.015 0.013c-3.72 3.406-8.697 5.493-14.161 5.493s-10.441-2.087-14.177-5.507l0.016 0.014c-3.605-3.27-5.859-7.972-5.859-13.201s2.254-9.931 5.844-13.188l0.015-0.013c3.72-3.406 8.697-5.493 14.161-5.493s10.441 2.087 14.177 5.507l-0.016-0.014z"></path>
</svg>
